<svg width="60" height="60" viewBox="0 0 60 60" fill="none" xmlns="http://www.w3.org/2000/svg">
<path d="M55.9322 5.52903L29.5376 0.00794036C29.1342 -0.079042 28.7347 0.181905 28.6495 0.587632L25.0981 17.5646L21.4528 14.4041C21.145 14.1386 20.6814 14.1637 20.4079 14.4648L19.8437 15.0811L18.5326 13.8822C18.2265 13.6029 17.7526 13.623 17.4728 13.9291L12.9028 18.9232C12.7683 19.0697 12.6979 19.2637 12.7071 19.4622C12.7157 19.662 12.8027 19.8485 12.9497 19.9824L14.2608 21.1824L13.6971 21.7987C13.4224 22.098 13.4367 22.5627 13.7291 22.8454L16.9521 25.9567L12.5057 30.8146L9.12136 27.8795C8.81406 27.614 8.35111 27.6403 8.077 27.9402L7.51276 28.557L6.2023 27.3576C6.05523 27.2225 5.86868 27.147 5.66209 27.1613C5.46352 27.1699 5.27697 27.2569 5.14249 27.404L0.57248 32.3986C0.438001 32.5451 0.367614 32.7391 0.37677 32.9382C0.385354 33.1374 0.472908 33.3245 0.619405 33.4584L1.92986 34.6573L1.36619 35.2736C1.09151 35.5729 1.10582 36.0375 1.39824 36.3202L13.8848 48.3736C13.7268 48.6557 13.7532 49.0128 13.9872 49.2548L23.7378 59.3648C24.123 59.7643 24.6597 59.9914 25.2137 59.9914H25.2411C25.8042 59.984 26.3456 59.7408 26.7256 59.3253L34.2793 51.07C34.6598 50.654 34.8533 50.0938 34.8104 49.5318C34.768 48.9699 34.4916 48.4451 34.0538 48.0914L31.9886 46.4262L46.7321 49.5106C47.0554 49.5787 47.381 49.6119 47.7043 49.6119C48.6079 49.6119 49.4921 49.3504 50.2669 48.8445C51.317 48.1578 52.0374 47.1032 52.2944 45.8745L59.5706 11.0919C59.8275 9.86213 59.5906 8.60775 58.9033 7.55652C58.216 6.50587 57.1614 5.78483 55.9322 5.52903ZM14.5166 19.3821L18.0743 15.4948L18.8319 16.1867L15.2742 20.0751L14.5166 19.3821ZM21.0219 16.0161L33.5256 26.8603L27.2051 33.7674L15.2977 22.2731L21.0219 16.0161ZM37.9503 44.8371C37.8467 44.9498 37.7059 45.0127 37.552 45.015C37.4118 45.0322 37.2556 44.9572 37.1491 44.8468L35.9663 43.6204L44.1163 34.7133L45.4434 35.784C45.5624 35.8796 45.6345 36.0169 45.646 36.1703C45.658 36.3225 45.607 36.4684 45.5035 36.5829L37.9503 44.8371ZM34.9231 42.5389L27.8884 35.2444L35.0581 27.4085L42.9466 33.7697L34.9231 42.5389ZM17.0843 34.7837L21.3126 30.1634L22.2734 31.0904C22.2717 31.0967 22.2671 31.1007 22.2666 31.1064L20.8188 38.0227L17.0843 34.7837ZM18.0331 26.9982L20.2328 29.1219L15.9512 33.8012L13.641 31.7971L18.0331 26.9982ZM2.1868 32.8581L5.74393 28.9696L6.50159 29.6626L2.9439 33.5499L2.1868 32.8581ZM8.6916 29.4915L21.1953 40.3357L14.8748 47.2434L2.96679 35.748L8.6916 29.4915ZM22.7272 40.8834L30.6152 47.2457L22.591 56.0137L15.5563 48.7192L22.7272 40.8834ZM33.3156 49.6451C33.3271 49.7979 33.2767 49.9444 33.1731 50.0577L25.6194 58.3125C25.5158 58.4252 25.3745 58.4881 25.2217 58.4904C25.0769 58.5047 24.9247 58.4326 24.8182 58.3222L23.6348 57.0953L31.7854 48.1893L33.1125 49.2594C33.2315 49.355 33.3036 49.4918 33.3156 49.6451ZM23.1209 39.2736C22.8583 39.0625 22.5012 39.067 22.2334 39.2496L22.1081 39.1409C22.1132 39.1231 22.1247 39.1088 22.1287 39.0911L23.5456 32.319L26.2163 34.897C26.0577 35.1803 26.0852 35.5362 26.3193 35.7783L35.8993 45.7126L29.473 44.3684C29.4609 44.3661 29.4489 44.3695 29.4369 44.3684L23.1209 39.2736ZM58.1016 10.7829L50.8248 45.5655C50.6503 46.4016 50.1599 47.1198 49.4451 47.5873C48.7304 48.0548 47.876 48.2168 47.0388 48.0411L38.5151 46.2585C38.7148 46.1504 38.9014 46.0182 39.0565 45.8482L46.6096 37.5929C46.9902 37.1775 47.1842 36.6166 47.1418 36.0547C47.0989 35.4927 46.8225 34.968 46.3847 34.6143L37.2075 27.2134L48.9055 29.6294C48.9524 29.6392 48.9982 29.6437 49.0428 29.6437C49.3564 29.6437 49.6368 29.424 49.7032 29.1047C49.7788 28.7402 49.5441 28.3819 49.1785 28.307L33.8307 25.1384L26.3954 18.6897L29.9645 1.62913L55.6249 6.99629C56.461 7.1714 57.1791 7.66182 57.6467 8.37656C58.1159 9.09188 58.2767 9.94625 58.1016 10.7829Z" fill="#111111"/>
</svg>
